<?xml version="1.0" encoding="UTF-8"?>
<!-- Generator: Adobe Illustrator 23.0.3, SVG Export Plug-In . SVG Version: 6.00 Build 0)  -->
<svg version="1.1" id="Слой_1" xmlns="http://www.w3.org/2000/svg" xmlns:xlink="http://www.w3.org/1999/xlink" x="0px" y="0px" viewBox="0 0 1502.4 1394" style="enable-background:new 0 0 1502.4 1394;" xml:space="preserve">
<style type="text/css">
	.st0{fill:#3D3D3D;}
	.st1{fill:#AFAFAF;}
	.st2{fill:url(#SVGID_1_);}
	.st3{fill:url(#SVGID_2_);}
	.st4{fill:url(#SVGID_3_);}
	.st5{fill:url(#SVGID_4_);}
	.st6{fill:url(#SVGID_5_);}
	.st7{fill:url(#SVGID_6_);}
	.st8{fill:url(#SVGID_7_);}
	.st9{fill:url(#SVGID_8_);}
	.st10{fill:url(#SVGID_9_);}
	.st11{fill:#FFB703;}
</style>
<g>
	<g>
		<g>
			<path class="st0" d="M1088.4,769.9c-3.6,14.8-8.1,29.1-13.5,43.1c-24.9-12-55.2-2.9-69.2,21.4c-14,24.3-6.8,55,16,70.6     c-15.7,19.6-33.5,37.3-53.1,53c-15.5-22.8-46.2-30-70.5-16c-24.3,14.1-33.4,44.3-21.4,69.2c-23,8.9-47.4,15.5-72.5,19.3     c-2.1-27.5-25-49.1-53.1-49.1c-28,0-51,21.6-53,49.1c-25.2-3.9-49.4-10.4-72.5-19.3c12-24.9,2.9-55.1-21.4-69.2     c-24.3-14-55-6.8-70.6,16c-19.5-15.7-37.3-33.5-53-53c22.8-15.6,30-46.3,16-70.6c-14.1-24.3-44.3-33.4-69.2-21.4     c-5.4-14-9.9-28.3-13.5-43.1c30.8,4.9,61.7,5.6,90.5,4.1c35.7,101.8,132.7,174.9,246.7,174.9c114.1,0,211-73,246.7-174.9     C1026.7,775.6,1057.7,774.9,1088.4,769.9z"/>
			<path class="st1" d="M982,772.9c-34.8,93.8-125.2,160.7-230.9,160.7c-105.7,0-196-67-230.8-160.7c8.4-0.7,16.6-1.6,24.4-2.6     c32.9,81.8,113,139.7,206.4,139.7c93.5,0,173.6-57.9,206.5-139.7C965.5,771.3,973.6,772.2,982,772.9z"/>
		</g>
		<g>
			<g>
				<linearGradient id="SVGID_1_" gradientUnits="userSpaceOnUse" x1="498.0669" y1="802.2801" x2="919.5175" y2="241.5365">
					<stop offset="0" style="stop-color:#FB1F05"/>
					<stop offset="0.3462" style="stop-color:#FECA28"/>
					<stop offset="1" style="stop-color:#FB1F05"/>
				</linearGradient>
				<path class="st2" d="M986.6,514.6c0,120.5-90.6,219.9-207.3,233.7c18.5-22.2,25.1-47.6,26-70.8c1.6-38.8-12.5-71.3-12.5-71.3      c118.1-15.1,101.5-98.3,101.5-98.3s-19.9,50.7-69,50.7c-27.8,0-31-20.6-90.3-20.6c-59.4,0-75.8,56.3-75.8,56.3      c-49.5-0.9-51.9,44.4-51.9,44.4s10.3-17.5,47.9-17.5c24.9,0,56,23,56,86.5c0,14.4-1.9,27.1-4.8,38      c-108.6-20.9-190.6-116.4-190.6-231.1c0-32.2,6.5-62.8,18.2-90.8c-0.1,0.8-0.1,1.6-0.1,2.4c0,26.1,21.1,47.2,47.2,47.2      c26,0,47.2-21.1,47.2-47.2c0-0.9,0-1.8-0.1-2.7c0-0.7-0.1-1.4-0.2-2.1c-0.1-0.8-0.2-1.6-0.3-2.4c-0.3-2.4-0.9-4.7-1.6-6.8      c-0.2-0.8-0.4-1.5-0.8-2.2c-0.5-1.5-1.1-2.9-1.8-4.2c-0.3-0.7-0.6-1.4-1-2c-8.8-16.9-25.8-29.9-32.7-60.5      c-1.9-8.5-3.1-18.2-3.1-29.8c0-34.8,15.9-57,28-68.8c-0.8,2.8-1.2,5.9-1.2,9c0,19.5,15.8,35.3,35.3,35.3      c19.5,0,35.3-15.8,35.3-35.3C684.2,25,793.5,0,793.5,0s-16.9,36.6-16.9,73.2c0,95.5,102.7,151.8,102.7,234.8      c0,3.1-0.1,6-0.3,8.9c-4.2,75.4-61.6,111.7-63.6,159.1c-0.1,0.9-0.1,1.8-0.1,2.7c0,23.7,19.2,42.9,42.9,42.9      c12.4,0,23.7-5.3,31.5-13.9c0.4-0.4,0.7-0.7,1-1.1c0.2-0.2,0.4-0.4,0.5-0.6c51.4-54.2,20.7-160.7,19.7-164.4      C957.4,384.6,986.6,446.2,986.6,514.6z"/>
				<linearGradient id="SVGID_2_" gradientUnits="userSpaceOnUse" x1="304.4562" y1="656.7884" x2="725.9162" y2="96.0323">
					<stop offset="0" style="stop-color:#FB1F05"/>
					<stop offset="0.3462" style="stop-color:#FECA28"/>
					<stop offset="1" style="stop-color:#FB1F05"/>
				</linearGradient>
				<path class="st3" d="M580.1,353.1c0.3,1.3,0.6,2.7,1,4c-0.3-0.2-1.1-1.1-2.4-2.5c-12.4-14.6-66.1-87.6,34.9-163.5      C613.5,191.1,557,259.6,580.1,353.1z"/>
				<linearGradient id="SVGID_3_" gradientUnits="userSpaceOnUse" x1="436.3834" y1="755.9438" x2="857.8434" y2="195.1878">
					<stop offset="0" style="stop-color:#FB1F05"/>
					<stop offset="0.3462" style="stop-color:#FECA28"/>
					<stop offset="1" style="stop-color:#FB1F05"/>
				</linearGradient>
				<path class="st4" d="M894.4,263.9c0-70.6-59.8-48.6-59.8-154.9c0,0,8,34.4,41.5,65.6C925,220.2,894.4,263.9,894.4,263.9z"/>
			</g>
			<g>
				<g>
					<linearGradient id="SVGID_4_" gradientUnits="userSpaceOnUse" x1="1180.4274" y1="501.241" x2="1180.4274" y2="1040.0667">
						<stop offset="0" style="stop-color:#FB1F05"/>
						<stop offset="0.3462" style="stop-color:#FECA28"/>
						<stop offset="1" style="stop-color:#FB1F05"/>
					</linearGradient>
					<path class="st5" d="M1222.3,595.1c-9.3,15.6-14,25.2-14,25.2s13.7-8.3,30.2-24.4c9.8-9.6,20.5-22,29.9-37       c24.6-39.3,82.2-50.6,85.8-51.2c-2.7,1.9-41.5,28.2-71.1,87.6c-1.6,3.2-3.2,6.4-4.7,9.8c-4.6,10-10.1,19.1-16.4,27.5       c-5.7,7.7-12,14.7-18.7,21.1c-24.6,23.8-54.1,39.5-75.6,48.7h-0.1c-2.4,1-4.7,2-6.9,2.8c-13.9,5.6-23.3,8.1-23.3,8.1       c9.6,2.3,20.9,1.1,32.7-2.1c5-1.3,10.2-3.1,15.3-5c34.6-13.3,68.5-38.3,70.6-39.9c-40.4,64.5-103.5,93.2-167.6,103.5       c-30.8,4.9-61.7,5.6-90.5,4.1c-5.4-0.3-10.7-0.6-15.9-1.1c-8.4-0.7-16.5-1.6-24.3-2.6c-57.6-7.4-99.2-21.4-99.2-21.4       c14.9-2.8,48.4-12.2,82.8-41.8c9.6,1.7,20,2.4,31.3,1.8c5.2-0.2,10.6-0.7,16.1-1.4c2.5-0.4,5.1-0.8,7.8-1.2       c1-0.2,1.9-0.4,2.8-0.5c2.5-0.5,5-1,7.5-1.6c1.7-0.4,3.5-0.8,5.3-1.3c6.8-1.7,13.8-3.8,21.2-6.4c3.4-1.1,6.8-2.4,10.3-3.8       c0.6-0.2,1.2-0.4,1.7-0.7c6.1-2.4,11.9-4.8,17.6-7.4c6.6-3,13-6,18.9-9.1c3.1-1.6,6.1-3.2,9-4.9c13.8-7.7,25.9-15.9,36.7-24.4       c8.3-6.5,15.8-13.2,22.7-20.1c6.9-6.8,13.2-13.9,19-21.1c4-4.9,7.7-9.8,11.2-14.8c7.7-10.8,14.6-21.7,21.3-32.7       c0.1,0,0.1,0,0.1,0c4.5-7.4,8.9-14.8,13.3-22.2c33.1-55.1,70.5-110.5,179.4-153c85.1-33.2,107.9-16.2,107.9-16.2       s-60.3,19.7-91.2,36.9C1313.2,457.4,1249,550.5,1222.3,595.1z"/>
					<linearGradient id="SVGID_5_" gradientUnits="userSpaceOnUse" x1="1103.3896" y1="482.4678" x2="1103.3896" y2="1217.1865">
						<stop offset="0" style="stop-color:#FB1F05"/>
						<stop offset="0.3462" style="stop-color:#FECA28"/>
						<stop offset="1" style="stop-color:#FB1F05"/>
					</linearGradient>
					<path class="st6" d="M1245.6,456.5c-0.7,1.5-12.1,25.7-31.9,57.8c-9.2,14.7-20,31.2-32.5,47.8c-6.2,8.3-12.8,16.6-19.7,24.7       c-2.5,3-5.1,6-7.8,8.9c-6.8,7.6-13.8,15-21.2,22.1c-1.1,1.1-2.3,2.2-3.4,3.3c-18.5,17.4-38.7,32.5-60.2,43       c-9.1,4.4-18.4,8-27.9,10.6c-0.7,0.2-1.4,0.4-2,0.6c-14.9,3.8-28.2,6.5-39.9,8.4c-15.3,2.5-27.8,3.6-37.9,3.8       c3.2-3.5,6.3-7.2,9.3-11.1c13.6-3.7,25.7-8.9,36.7-15.4c17.9-10.6,32.9-24.4,47-40.4l0.1-0.1c9.2-10.6,18-21.9,26.7-33.9       c0.4-0.5,0.9-1.1,1.3-1.7c8.5-11.6,16.9-23.7,25.9-35.9c29.1-39.9,70.3-64.6,100-78.2C1229.2,461,1244.4,456.8,1245.6,456.5z"/>
					
						<linearGradient id="SVGID_6_" gradientUnits="userSpaceOnUse" x1="1948.1252" y1="1051.7889" x2="1948.1252" y2="2267.9951" gradientTransform="matrix(0.6238 0.7816 -0.7816 0.6238 809.3481 -1645.9409)">
						<stop offset="0" style="stop-color:#FB1F05"/>
						<stop offset="0.3462" style="stop-color:#FECA28"/>
						<stop offset="1" style="stop-color:#FB1F05"/>
					</linearGradient>
					<path class="st7" d="M974.7,791.3c-19.8,11.4-37.4,17.2-52.8,19.1c-10.2,1.2-19.5,0.8-27.9-0.9c-13.5-2.6-24.8-8.4-33.9-15.3       c-22-16.5-31.8-39.2-31.8-39.2c14.8,8,30.3,14.3,45.5,19.2c12.7,4.1,25.2,7.2,36.8,9.6c8.9,1.9,17.3,3.2,24.8,4.3       C958.8,791.2,974.7,791.3,974.7,791.3z"/>
				</g>
				<g>
					<linearGradient id="SVGID_7_" gradientUnits="userSpaceOnUse" x1="321.9345" y1="501.241" x2="321.9345" y2="1040.0667">
						<stop offset="0" style="stop-color:#FB1F05"/>
						<stop offset="0.3462" style="stop-color:#FECA28"/>
						<stop offset="1" style="stop-color:#FB1F05"/>
					</linearGradient>
					<path class="st8" d="M643.9,748.9c0,0-41.6,14-99.2,21.4c-7.8,1-16,1.9-24.4,2.6c-5.2,0.5-10.5,0.9-15.9,1.1       c-28.8,1.6-59.8,0.9-90.5-4.1c-64.1-10.3-127.1-39-167.6-103.5c2.1,1.6,36,26.5,70.6,39.9c5.1,2,10.3,3.7,15.3,5       c11.8,3.2,23.1,4.3,32.7,2.1c0,0-9.3-2.5-23.3-8.1c-2.2-0.9-4.4-1.8-6.9-2.8h-0.1c-21.5-9.2-51-24.9-75.6-48.7       c-6.7-6.4-13-13.4-18.7-21.1c-6.3-8.4-11.9-17.6-16.4-27.5c-1.5-3.4-3.1-6.6-4.7-9.8c-29.6-59.5-68.4-85.8-71.1-87.6       c3.6,0.6,61.2,11.9,85.8,51.2c9.4,15.1,20.1,27.4,29.9,37c16.5,16.1,30.2,24.4,30.2,24.4s-4.7-9.6-14-25.2       c-26.7-44.5-91-137.7-188.9-192.1C60.3,385.8,0,366.1,0,366.1s22.8-17,107.9,16.2c108.9,42.5,146.4,97.9,179.4,153       c4.4,7.4,8.8,14.7,13.3,22.2c0,0,0,0,0.1,0c6.7,11,13.6,22,21.3,32.7c3.5,5,7.2,9.9,11.2,14.8c5.8,7.2,12.1,14.3,19,21.1       c6.9,6.9,14.4,13.6,22.7,20.1c10.8,8.5,22.9,16.7,36.7,24.4c2.9,1.7,5.9,3.3,9,4.9c5.9,3.1,12.3,6.1,18.9,9.1       c5.6,2.5,11.4,5,17.5,7.4c0.6,0.2,1.2,0.5,1.8,0.7c3.5,1.3,6.9,2.6,10.3,3.8c7.3,2.6,14.4,4.7,21.2,6.4       c1.8,0.5,3.5,0.9,5.3,1.3c2.5,0.6,5,1.1,7.5,1.6c0.9,0.2,1.9,0.4,2.8,0.5c2.7,0.5,5.3,0.9,7.8,1.3c5.6,0.8,10.9,1.3,16.1,1.4       c11.4,0.5,21.8-0.2,31.3-1.8C595.4,736.8,629,746.1,643.9,748.9z"/>
					
						<linearGradient id="SVGID_8_" gradientUnits="userSpaceOnUse" x1="3428.7297" y1="482.4678" x2="3428.7297" y2="1217.1865" gradientTransform="matrix(-1 0 0 1 3827.6877 0)">
						<stop offset="0" style="stop-color:#FB1F05"/>
						<stop offset="0.3462" style="stop-color:#FECA28"/>
						<stop offset="1" style="stop-color:#FB1F05"/>
					</linearGradient>
					<path class="st9" d="M256.8,456.5c0.7,1.5,12.1,25.7,31.9,57.8c9.2,14.7,20,31.2,32.5,47.8c6.2,8.3,12.8,16.6,19.7,24.7       c2.5,3,5.1,6,7.8,8.9c6.8,7.6,13.8,15,21.2,22.1c1.1,1.1,2.3,2.2,3.4,3.3c18.5,17.4,38.7,32.5,60.2,43       c9.1,4.4,18.4,8,27.9,10.6c0.7,0.2,1.4,0.4,2,0.6c14.9,3.8,28.2,6.5,39.9,8.4c15.3,2.5,27.8,3.6,37.9,3.8       c-3.2-3.5-6.3-7.2-9.3-11.1c-13.6-3.7-25.7-8.9-36.7-15.4c-17.9-10.6-32.9-24.4-47-40.4l-0.1-0.1c-9.2-10.6-18-21.9-26.7-33.9       c-0.4-0.5-0.9-1.1-1.3-1.7c-8.5-11.6-16.9-23.7-25.9-35.9c-29.1-39.9-70.3-64.6-100-78.2C273.1,461,257.9,456.8,256.8,456.5z"/>
					
						<linearGradient id="SVGID_9_" gradientUnits="userSpaceOnUse" x1="3398.6997" y1="-765.6378" x2="3398.6997" y2="450.5685" gradientTransform="matrix(-0.6238 0.7816 0.7816 0.6238 3018.3396 -1645.9409)">
						<stop offset="0" style="stop-color:#FB1F05"/>
						<stop offset="0.3462" style="stop-color:#FECA28"/>
						<stop offset="1" style="stop-color:#FB1F05"/>
					</linearGradient>
					<path class="st10" d="M527.7,791.3c19.8,11.4,37.4,17.2,52.8,19.1c10.2,1.2,19.5,0.8,27.9-0.9c13.5-2.6,24.8-8.4,33.9-15.3       c22-16.5,31.8-39.2,31.8-39.2c-14.8,8-30.3,14.3-45.5,19.2c-12.7,4.1-25.2,7.2-36.8,9.6c-8.9,1.9-17.3,3.2-24.8,4.3       C543.5,791.2,527.7,791.3,527.7,791.3z"/>
				</g>
			</g>
		</g>
	</g>
</g>
</svg>