<svg fill="#fff" xmlns="http://www.w3.org/2000/svg" width="93.031" height="18" viewBox="0 0 93.031 18" data-prefix="i8uu52tn6"><path d="M46.802 11.19a4.729 4.729 0 0 1-1.813 1.8 5.2 5.2 0 0 1-2.6.651 5.264 5.264 0 0 1-2.4-.546 4.767 4.767 0 0 1-1.778-1.526 4.935 4.935 0 0 1-.861-2.226h-1.54V13.5h-1.79V3.7h1.792v4.018h1.568a4.922 4.922 0 0 1 .889-2.163 4.739 4.739 0 0 1 1.762-1.47 5.286 5.286 0 0 1 2.359-.525 5.2 5.2 0 0 1 2.6.651 4.73 4.73 0 0 1 1.813 1.8 5.426 5.426 0 0 1-.001 5.179zm-1.6-4.382A3.046 3.046 0 0 0 44.04 5.59a3.213 3.213 0 0 0-1.652-.434 3.175 3.175 0 0 0-1.645.434 3.109 3.109 0 0 0-1.162 1.218 3.974 3.974 0 0 0 0 3.584 3.106 3.106 0 0 0 1.162 1.218 3.173 3.173 0 0 0 1.645.434 3.211 3.211 0 0 0 1.652-.434 3.043 3.043 0 0 0 1.162-1.218 4.033 4.033 0 0 0 .004-3.584zM29.89 9.3h-5.068v4.2h-1.82V3.7h1.82v4.046h5.068V3.7h1.82v9.8h-1.82V9.3zM14 3.7h7.154v1.526H15.82v2.548h4.732v1.5H15.82v2.7h5.53V13.5H14V3.7zM8.988 7l-3.22 5.376h-.812l-3.22-5.292V13.5H.014V3.7h1.5l3.878 6.482L9.231 3.7h1.484l.028 9.8H9.002zM67.031 18v-2h26v2h-26zm0-10h26v2h-26V8zm0-8h26v2h-26V0z" fill-rule="evenodd" class="path-i1jj1mv86"></path></svg>